# xmcd
#
# Track frame offsets:
# 150
# 22692
# 37028
# 61413
# 75570
# 98139
# 122993
# 134730
# 153083
# 179884
# 197746
# 221388
#
# Disc length: 3165 seconds
#
#
# Revision: 1
# Processed by: cddbd v1.5.1PL0 Copyright (c) Steve Scherf et al.
# Submitted via: FreeRIP 2.51 
#
DISCID=a50c5b0c
DTITLE=Ladies Of Jazz - Dutch Jazz Giants Vol 6
DYEAR=1999
DGENRE=Jazz
TTITLE0=Carmen Gomes - Soulstation
TTITLE1=Lils Mackintosh - No More Blues
TTITLE2=Lydia van Dam - All Of You
TTITLE3=Rita Reys - The Second Time Around
TTITLE4=Carmen Gomez - Take It All
TTITLE5=Deborah J. Carter - Sophisticated Lady
TTITLE6=Lydia van Dam - Moody's Mood For Love
TTITLE7=Lils Mackintosh - All Or Nothing At All
TTITLE8=Carmen Gomes - Where Can I Go Without You
TTITLE9=Rita Reys - If I Should Lose You
TTITLE10=Lydia van Dam - April In Paris/I'll Remember April
TTITLE11=Deborah J. Carter - I Let A Song Go Out Of My Heart
EXTD=YEAR: 1999
EXTT0=
EXTT1=
EXTT2=
EXTT3=
EXTT4=
EXTT5=
EXTT6=
EXTT7=
EXTT8=
EXTT9=
EXTT10=
EXTT11=
PLAYORDER=
